<?xml version="1.0" standalone="no"?>
<!DOCTYPE svg PUBLIC "-//W3C//DTD SVG 20010904//EN"
 "http://www.w3.org/TR/2001/REC-SVG-20010904/DTD/svg10.dtd">
<svg version="1.0" xmlns="http://www.w3.org/2000/svg"
 width="533.000000pt" height="533.000000pt" viewBox="0 0 533.000000 533.000000"
 preserveAspectRatio="xMidYMid meet">
<metadata>
Created by potrace 1.14, written by Peter Selinger 2001-2017
</metadata>
<g transform="translate(0.000000,533.000000) scale(0.100000,-0.100000)"
fill="#000000" stroke="none">
<path d="M2389 4806 c-2 -2 -47 -6 -99 -9 -357 -22 -542 -92 -745 -282 -116
-108 -186 -140 -310 -140 -99 0 -125 8 -312 96 -56 27 -120 53 -142 58 -55 12
-158 5 -186 -13 -56 -37 -86 -173 -59 -273 29 -110 82 -193 200 -308 75 -74
74 -72 90 -200 3 -27 16 -70 28 -95 22 -44 29 -50 132 -97 54 -25 69 -76 68
-228 -1 -128 -16 -221 -60 -375 -9 -35 -15 -98 -16 -170 0 -108 2 -130 19
-205 4 -16 8 -34 9 -40 1 -11 4 -18 41 -118 39 -105 142 -285 177 -309 13 -10
-11 -28 -28 -22 -31 12 -637 19 -771 9 -264 -20 -388 -44 -401 -80 -3 -7 0
-23 6 -35 13 -25 14 -25 175 4 44 8 130 18 190 22 143 10 572 9 745 -1 74 -4
145 -7 156 -7 22 2 52 -24 42 -34 -3 -3 -64 -7 -134 -9 -265 -9 -332 -14 -499
-37 -44 -6 -89 -12 -100 -13 -44 -6 -149 -36 -162 -46 -20 -17 -16 -57 8 -69
15 -9 32 -8 67 4 64 21 175 40 292 51 118 11 170 14 321 21 292 12 298 12 336
-14 19 -13 33 -25 31 -27 -2 -2 -57 -6 -123 -10 -66 -4 -133 -8 -150 -10 -16
-2 -61 -6 -100 -10 -65 -5 -241 -23 -310 -30 -32 -4 -204 -31 -245 -40 -234
-47 -307 -76 -298 -121 7 -37 32 -39 125 -11 75 23 156 42 272 62 36 6 278 36
321 40 19 2 91 8 160 14 154 13 237 19 363 27 87 5 100 3 123 -15 30 -24 25
-27 -51 -35 -59 -7 -196 -24 -245 -31 -14 -2 -45 -6 -70 -10 -78 -11 -263 -57
-308 -76 -48 -21 -59 -38 -42 -68 13 -26 28 -26 110 0 106 33 248 60 435 84
110 14 229 25 232 21 3 -2 7 -35 9 -73 6 -81 9 -100 24 -178 11 -55 46 -153
59 -165 4 -3 13 -18 21 -34 41 -79 139 -150 240 -172 54 -13 73 -22 86 -42 9
-15 28 -38 41 -51 l23 -24 -32 -32 c-63 -63 -131 -155 -154 -210 -15 -36 -14
-39 4 -58 26 -25 56 -15 72 23 7 17 16 30 21 30 5 0 9 6 9 13 0 13 42 67 110
139 l45 48 55 -21 c30 -11 56 -22 58 -23 1 -2 -7 -29 -18 -61 -11 -33 -23 -82
-26 -111 -6 -46 -4 -53 15 -63 37 -20 57 1 74 78 9 38 23 85 30 104 15 34 15
34 63 27 27 -4 112 -6 190 -4 l140 3 18 -49 c10 -27 20 -64 23 -82 11 -75 44
-106 77 -72 21 20 15 89 -15 173 -18 54 -16 67 14 72 13 3 22 6 52 18 29 12
31 11 80 -42 76 -82 91 -101 120 -154 33 -58 28 -53 53 -58 11 -2 28 5 37 15
15 17 16 23 4 51 -17 43 -109 169 -153 213 l-37 35 29 28 c16 15 34 38 41 50
6 13 24 25 39 28 163 35 242 94 315 240 43 86 55 149 71 355 2 30 6 35 27 35
32 -1 189 -16 214 -21 11 -2 55 -9 98 -14 66 -9 146 -25 285 -56 13 -2 47 -14
75 -24 29 -11 55 -20 59 -20 15 0 38 33 38 55 0 23 -8 28 -120 66 -36 12 -107
30 -138 34 -15 2 -52 8 -82 14 -30 6 -73 13 -95 15 -22 3 -71 10 -110 15 -38
5 -101 13 -140 16 -38 4 -72 9 -75 12 -3 2 6 13 20 24 22 16 37 18 115 14 160
-9 258 -16 415 -31 30 -2 80 -7 110 -10 86 -7 329 -39 365 -47 11 -3 40 -8 65
-12 79 -12 229 -57 264 -78 2 -1 13 7 25 17 52 47 14 76 -159 121 -45 11 -237
46 -310 55 -47 6 -95 13 -107 15 -21 3 -124 13 -313 30 -36 3 -99 8 -140 11
-112 7 -172 13 -177 18 -2 2 10 14 26 26 30 21 37 21 223 16 347 -11 593 -35
712 -71 66 -20 83 -19 96 6 20 36 -9 63 -86 82 -168 40 -441 66 -722 68 -94 1
-102 2 -90 17 7 10 13 19 14 20 14 24 1065 21 1103 -3 4 -2 25 -6 47 -9 23 -4
55 -11 73 -16 50 -14 81 3 81 46 0 42 -120 71 -370 89 -92 7 -647 7 -748 0
-41 -3 -78 -3 -83 1 -5 3 3 22 19 42 48 63 148 241 158 282 0 3 4 12 7 20 4 8
18 58 31 110 33 131 35 302 6 415 -42 158 -59 276 -57 390 2 96 5 115 27 154
19 34 34 47 65 58 92 30 114 61 140 193 21 103 27 115 126 212 122 121 180
240 181 374 1 56 -4 81 -23 119 -31 62 -52 75 -130 79 -84 4 -124 -6 -233 -59
-153 -73 -217 -95 -292 -102 -112 -9 -222 30 -304 109 -207 199 -361 270 -655
303 -33 4 -73 9 -90 12 -37 5 -691 14 -696 9z m626 -90 c149 -11 241 -24 340
-47 136 -32 239 -92 390 -228 93 -83 146 -116 224 -136 59 -15 159 -20 201
-11 14 3 41 9 60 12 33 5 32 4 -20 -26 -172 -98 -278 -118 -456 -85 -89 17
-131 30 -212 66 -31 14 -48 17 -61 9 -22 -11 -33 -34 -25 -53 9 -26 179 -97
230 -97 34 0 150 -65 227 -127 131 -105 200 -219 206 -340 1 -26 32 -46 56
-37 47 18 33 127 -32 249 -18 34 -113 155 -122 155 -11 1 -73 61 -68 66 3 3
20 8 39 10 103 16 266 99 524 270 87 58 119 74 147 74 33 0 38 -4 52 -36 43
-104 -18 -255 -160 -394 -42 -41 -84 -88 -95 -105 -10 -16 -27 -74 -39 -129
-11 -54 -26 -104 -32 -112 -6 -7 -33 -20 -60 -29 -60 -20 -111 -83 -129 -157
-29 -117 -14 -305 40 -519 28 -109 31 -135 27 -219 -7 -123 -10 -141 -46 -248
-46 -137 -132 -289 -215 -377 l-41 -44 -115 -7 c-63 -3 -118 -8 -122 -10 -4
-2 -9 5 -13 16 -28 87 -103 39 -139 -90 -8 -30 -18 -75 -21 -100 -8 -52 -12
-61 -28 -59 -33 4 -47 -3 -53 -26 -8 -31 10 -55 42 -55 40 0 40 -24 -1 -46
-31 -17 -31 -59 -1 -79 25 -16 25 -20 20 -89 -4 -65 -16 -148 -28 -202 -19
-88 -103 -199 -181 -239 l-59 -30 -180 0 c-207 0 -228 6 -303 83 -44 45 -82
135 -70 166 3 8 37 36 74 61 79 52 108 92 100 139 -7 41 4 54 93 115 85 59
110 91 110 143 0 48 -42 100 -78 96 -36 -4 -46 -40 -20 -73 l20 -26 -29 -24
c-15 -14 -57 -46 -92 -72 -74 -56 -103 -100 -91 -142 10 -36 8 -38 -69 -89
-71 -47 -67 -46 -84 -31 -7 5 -34 25 -62 42 -48 31 -50 34 -51 81 -1 60 -29
99 -114 156 -33 22 -69 50 -79 62 -20 20 -20 21 1 48 16 23 18 32 9 49 -12 21
-46 28 -67 13 -23 -16 -44 -58 -44 -88 0 -48 26 -85 92 -128 101 -67 117 -86
111 -133 -5 -35 -1 -45 27 -77 18 -20 58 -52 89 -70 54 -31 56 -34 55 -73 -1
-72 -60 -158 -136 -199 -16 -8 -28 -12 -28 -8 0 4 -7 1 -16 -7 -11 -9 -60 -13
-182 -13 -199 0 -248 12 -320 83 -82 82 -121 193 -137 392 -6 74 -5 76 19 87
37 17 33 82 -4 82 -37 0 -32 37 5 43 11 1 26 6 33 10 14 10 16 66 2 68 -5 1
-14 3 -20 4 -5 1 -18 3 -29 4 -16 1 -20 12 -26 69 -9 83 -36 156 -72 194 -35
36 -60 36 -81 -2 l-17 -30 -90 6 c-49 4 -107 7 -127 8 -41 2 -49 10 -127 121
-72 103 -119 197 -158 315 -29 87 -36 124 -40 220 -5 105 -2 126 26 242 61
251 69 403 28 543 -17 57 -85 125 -125 125 -42 0 -82 68 -82 140 0 30 -33 125
-52 148 -7 9 -50 52 -94 97 -127 125 -183 257 -154 361 15 53 31 64 76 54 29
-7 115 -54 149 -83 62 -51 342 -211 406 -232 13 -4 26 -8 29 -10 11 -5 95 -19
103 -17 19 5 2 -15 -59 -71 -105 -96 -167 -198 -185 -306 -13 -79 -5 -101 37
-101 36 0 37 1 48 85 9 68 64 160 141 238 78 78 212 165 266 173 60 9 126 32
209 73 40 19 52 59 25 81 -14 11 -22 12 -48 1 -76 -31 -163 -61 -211 -71 -80
-18 -227 -23 -277 -10 -44 12 -210 88 -219 100 -3 4 -12 10 -20 14 -8 3 -2 4
13 1 51 -10 111 -18 147 -19 32 -1 125 17 160 31 8 3 17 7 20 8 32 8 115 68
190 139 186 175 370 236 755 252 77 3 141 7 142 8 5 5 429 -3 508 -8z m-1350
-2750 c8 -28 16 -71 17 -96 3 -40 0 -45 -19 -48 -24 -4 -73 30 -163 111 l-53
48 77 -2 c81 -2 96 4 99 39 2 34 25 6 42 -52z m2040 54 c-7 -37 18 -49 95 -44
71 5 85 -2 51 -27 -10 -8 -53 -40 -95 -72 -42 -32 -84 -57 -94 -55 -21 4 -23
63 -5 127 18 63 58 121 48 71z m-983 -950 c69 -74 148 -102 295 -104 39 -1 74
-4 77 -7 9 -9 -76 -66 -133 -89 -28 -11 -53 -20 -55 -20 -1 0 -15 24 -30 54
-31 62 -49 73 -82 51 -29 -19 -29 -18 -3 -72 12 -24 18 -47 15 -50 -9 -9 -247
-9 -269 0 -16 6 -16 9 3 44 26 50 25 71 -5 85 -31 14 -55 -5 -86 -69 -16 -33
-25 -43 -38 -38 -9 4 -20 8 -26 9 -43 11 -161 84 -151 93 2 2 44 6 92 9 118 6
120 6 184 36 56 27 107 70 137 115 l17 25 17 -23 c9 -13 28 -35 41 -49z"/>
<path d="M1908 3789 c-19 -10 -24 -58 -10 -74 5 -6 22 -46 37 -90 34 -96 51
-125 75 -125 40 0 58 56 30 95 -3 6 -19 46 -35 90 -38 109 -56 128 -97 104z"/>
<path d="M3368 3783 c-8 -10 -27 -52 -42 -93 -15 -41 -31 -84 -36 -95 -19 -47
-20 -59 -4 -76 12 -14 21 -15 43 -8 24 9 34 25 70 124 45 123 47 135 29 153
-17 17 -43 15 -60 -5z"/>
<path d="M2182 3768 c-6 -13 -14 -66 -17 -120 -4 -80 -3 -99 11 -112 27 -28
61 -16 69 25 12 63 15 202 4 215 -18 22 -54 17 -67 -8z"/>
<path d="M3073 3771 c-6 -10 -10 -31 -8 -47 3 -16 6 -59 9 -95 4 -75 18 -109
46 -109 26 0 52 42 46 71 -3 13 -8 58 -11 99 -4 41 -11 80 -17 87 -15 19 -51
16 -65 -6z"/>
<path d="M1603 3693 c-29 -11 0 -92 47 -133 3 -3 36 -42 74 -88 57 -69 73 -83
94 -80 34 4 47 48 23 75 -9 10 -56 66 -104 126 -83 101 -101 114 -134 100z"/>
<path d="M3593 3595 c-105 -126 -126 -160 -112 -187 5 -10 20 -18 33 -18 22 0
53 31 139 140 7 8 29 36 50 61 38 48 46 76 25 97 -25 25 -49 9 -135 -93z"/>
<path d="M1839 3282 c-26 -22 -21 -65 8 -76 10 -4 38 -17 63 -31 44 -23 117
-48 175 -60 17 -3 53 -10 80 -15 86 -16 96 -19 128 -38 35 -20 80 -79 74 -96
-13 -35 43 -62 71 -34 28 28 0 124 -49 171 -39 37 -111 66 -206 82 -54 9 -105
19 -113 22 -8 4 -17 7 -20 8 -36 9 -95 33 -137 56 -50 28 -52 28 -74 11z"/>
<path d="M3446 3275 c-37 -28 -174 -75 -263 -89 -48 -9 -106 -20 -127 -26 -52
-15 -140 -103 -149 -149 -11 -54 -8 -80 11 -89 31 -17 58 3 71 51 19 79 63
103 262 141 134 25 269 88 277 129 8 41 -44 61 -82 32z"/>
<path d="M1552 3219 c-18 -7 -23 -15 -20 -36 2 -22 15 -35 65 -63 56 -32 61
-37 55 -60 -4 -14 -7 -59 -7 -100 1 -92 31 -164 97 -233 103 -108 294 -138
413 -65 16 10 37 21 45 25 8 4 23 17 33 30 30 38 37 27 31 -44 -4 -38 -7 -81
-9 -98 -3 -37 10 -55 40 -55 39 0 50 40 50 189 0 121 -2 141 -22 177 -60 113
-155 170 -313 190 -126 15 -234 49 -350 108 -67 34 -90 42 -108 35z m273 -239
c-8 -73 52 -154 126 -169 76 -16 142 18 180 92 11 20 23 37 27 37 5 0 23 -16
42 -35 l33 -34 -29 -48 c-46 -74 -130 -118 -221 -114 -7 0 -25 1 -40 2 -30 2
-106 41 -141 72 -42 39 -74 120 -73 187 0 34 3 65 6 70 3 5 25 2 50 -6 43 -15
44 -16 40 -54z m213 3 c36 -9 28 -45 -16 -75 -32 -22 -77 -6 -97 32 -24 46
-11 63 44 55 25 -3 56 -9 69 -12z"/>
<path d="M3690 3195 c-30 -19 -63 -34 -72 -35 -9 0 -19 -4 -22 -9 -12 -18
-162 -57 -291 -76 -176 -25 -294 -119 -320 -255 -15 -78 -4 -260 17 -287 27
-34 80 -3 72 42 -5 26 -14 165 -10 165 1 0 20 -16 42 -35 21 -19 44 -35 50
-35 6 0 17 -6 23 -14 7 -8 28 -17 49 -22 20 -4 44 -9 52 -11 8 -2 33 -4 54 -4
161 -1 296 100 341 255 17 56 17 159 2 196 -5 11 11 25 56 50 67 38 85 72 51
97 -24 18 -31 16 -94 -22z m-94 -170 c13 -51 -4 -141 -35 -190 -41 -65 -123
-122 -178 -124 -124 -5 -199 26 -250 103 -18 26 -33 51 -33 55 0 12 62 71 74
71 6 -1 20 -20 31 -42 22 -46 64 -75 123 -83 86 -14 180 79 169 168 -4 31 -2
37 13 37 11 0 21 4 25 10 3 5 12 7 20 3 8 -3 15 0 15 6 0 22 20 11 26 -14z
m-186 -54 c0 -20 -9 -37 -31 -55 -28 -24 -33 -25 -62 -13 -31 13 -58 59 -44
74 7 7 73 19 115 22 18 1 22 -4 22 -28z"/>
<path d="M3763 2619 c-176 -102 -309 -349 -187 -349 20 0 33 15 40 48 12 58
119 193 165 207 11 4 19 10 19 14 0 4 11 13 24 19 24 10 39 43 27 58 -23 32
-37 33 -88 3z"/>
<path d="M1487 2633 c-4 -3 -7 -18 -7 -33 0 -21 12 -34 66 -69 75 -49 146
-133 164 -194 15 -53 27 -67 55 -67 49 0 47 74 -2 158 -41 70 -140 168 -202
201 -22 12 -64 15 -74 4z"/>
<path d="M2435 2510 c-11 -12 -15 -28 -12 -42 6 -26 12 -50 23 -93 9 -36 42
-109 69 -150 37 -58 115 -143 136 -148 25 -7 105 63 141 122 12 20 25 38 29
41 13 9 58 126 72 187 16 69 9 93 -28 93 -22 0 -36 -12 -42 -35 -1 -5 -7 -30
-13 -55 -15 -62 -74 -178 -111 -219 l-31 -33 -32 31 c-44 42 -101 154 -116
227 -11 52 -38 94 -60 94 -4 0 -15 -9 -25 -20z"/>
<path d="M3221 2364 c-30 -22 -26 -41 22 -114 82 -122 99 -160 100 -222 1 -49
-3 -63 -32 -104 -42 -61 -46 -80 -17 -99 21 -14 56 -12 56 4 0 3 13 21 29 40
51 60 68 167 39 250 -25 72 -134 244 -162 254 -8 3 -23 -1 -35 -9z"/>
<path d="M2008 2288 c-94 -141 -118 -215 -103 -314 8 -56 72 -154 100 -154 50
0 58 44 19 96 -15 19 -22 34 -18 34 5 0 3 4 -4 9 -20 12 -17 102 5 152 11 24
43 79 71 123 53 81 64 119 36 130 -38 15 -53 4 -106 -76z"/>
<path d="M2132 1851 c-22 -14 -33 -86 -22 -138 14 -59 42 -106 84 -138 43 -32
73 -32 88 0 10 23 8 29 -30 68 -48 49 -64 91 -56 148 8 57 -23 86 -64 60z"/>
<path d="M3141 1847 c-6 -7 -10 -38 -9 -68 1 -63 -17 -104 -61 -138 -39 -30
-41 -67 -6 -83 60 -27 157 95 157 199 0 67 -16 103 -46 103 -13 0 -28 -6 -35
-13z"/>
<path d="M2433 1795 c-21 -23 -15 -45 24 -81 56 -53 116 -77 198 -78 93 -1
139 12 182 51 7 6 16 13 20 15 5 2 19 15 32 30 22 25 23 30 11 53 -18 33 -43
32 -91 -7 -50 -41 -96 -56 -156 -53 -59 3 -76 10 -132 52 -47 36 -69 40 -88
18z"/>
<path d="M1953 1580 c-43 -18 -42 -88 2 -108 40 -19 84 9 85 54 0 43 -45 71
-87 54z"/>
<path d="M3312 1574 c-29 -20 -29 -70 0 -96 12 -10 28 -16 36 -13 7 3 17 5 22
5 17 0 40 32 40 54 0 49 -58 78 -98 50z"/>
<path d="M2182 1447 c-42 -19 -41 -89 1 -103 39 -14 48 -13 68 7 50 50 -3 126
-69 96z"/>
<path d="M3081 1443 c-44 -30 -14 -118 37 -108 9 2 22 4 28 4 17 1 35 50 28
76 -5 22 -24 34 -61 41 -6 1 -21 -5 -32 -13z"/>
<path d="M1956 1358 c-21 -30 -20 -61 2 -81 40 -36 102 -9 102 45 0 53 -74 79
-104 36z"/>
<path d="M3287 1362 c-38 -42 -6 -107 49 -100 19 2 34 13 44 31 13 24 13 30 0
55 -20 34 -68 42 -93 14z"/>
<path d="M2337 1332 c-22 -24 -21 -65 1 -85 40 -36 102 -9 102 45 0 51 -69 78
-103 40z"/>
<path d="M2912 1334 c-45 -31 -19 -104 37 -104 55 0 80 61 41 100 -24 24 -48
25 -78 4z"/>
<path d="M2130 1237 c-20 -10 -25 -20 -25 -52 0 -33 4 -42 27 -53 20 -9 32
-10 52 -1 47 22 47 86 1 107 -31 14 -25 14 -55 -1z"/>
<path d="M3150 1242 c-42 -13 -53 -70 -19 -101 38 -36 99 -9 99 44 0 42 -40
70 -80 57z"/>
</g>
</svg>
